<svg xmlns="http://www.w3.org/2000/svg" width="720" height="720" viewBox="0 0 720 720" role="img" aria-labelledby="title desc">
  <title id="title">Dar Al Ber digital giving mark</title>
  <desc id="desc">A refined abstract mark inspired by giving, continuity, growth and impact.</desc>
  <defs>
    <linearGradient id="green" x1="120" y1="90" x2="620" y2="650" gradientUnits="userSpaceOnUse">
      <stop stop-color="#2f735b"/>
      <stop offset="1" stop-color="#123329"/>
    </linearGradient>
    <linearGradient id="gold" x1="220" y1="120" x2="520" y2="640" gradientUnits="userSpaceOnUse">
      <stop stop-color="#f0d894"/>
      <stop offset=".52" stop-color="#c1993f"/>
      <stop offset="1" stop-color="#9f7a2c"/>
    </linearGradient>
    <filter id="softShadow" x="-20%" y="-20%" width="140%" height="140%">
      <feDropShadow dx="0" dy="24" stdDeviation="26" flood-color="#061b16" flood-opacity=".26"/>
    </filter>
  </defs>
  <circle cx="360" cy="360" r="276" fill="none" stroke="url(#gold)" stroke-width="10" opacity=".88"/>
  <circle cx="360" cy="360" r="224" fill="none" stroke="#fff" stroke-width="3" opacity=".45"/>
  <path filter="url(#softShadow)" fill="url(#green)" d="M158 381c80 76 176 112 287 102 58-5 102-26 132-58-15 87-91 154-183 161-116 9-213-45-276-134-15-22 13-91 40-71Z"/>
  <path fill="url(#gold)" d="M219 418c70 41 150 55 240 36 48-10 86-31 116-62-17 63-74 111-145 124-94 17-170-13-225-78-10-12 0-28 14-20Z"/>
  <path fill="#fff" opacity=".82" d="M253 359c36-65 94-110 173-136 27-9 55-14 82-15-29 54-77 97-144 126-37 17-75 25-111 25Z"/>
  <path fill="url(#gold)" d="M453 153c27 69 13 135-42 197-31-72-16-138 42-197Z"/>
  <path fill="#fff" opacity=".55" d="M365 191c17 58 5 112-36 163-24-57-11-111 36-163Z"/>
  <circle cx="236" cy="289" r="18" fill="url(#gold)"/>
  <circle cx="506" cy="304" r="14" fill="#fff" opacity=".72"/>
  <circle cx="560" cy="358" r="9" fill="url(#gold)"/>
</svg>